<svg version="1.0" xmlns="http://www.w3.org/2000/svg" width="57.333" height="57.333" viewBox="0 0 43 43"><path d="M14.2 1.3C2.7 5.5-3.2 19.4 1.9 30.5c9.6 20.8 41 14 41.1-8.9C43 6.9 28-3.7 14.2 1.3zm16.4 3.5c1.2.6 3.5 2.7 5.2 4.6 12 13.7-.8 35.1-18.4 30.7C9.1 38 4.4 33 2.6 24.3 1.2 18 6.1 8.2 12.4 4.8c4.8-2.6 13.3-2.6 18.2 0z"/><path d="M11.4 12.3c-.2.7-.4 5.4-.2 10.3l.3 8.9h20v-20l-9.8-.3c-7.5-.2-9.9 0-10.3 1.1zm17.4 2c.6.6 1 4.4.9 8.2l-.2 7h-16l.1-7.5.1-7.5 5.9-.6c3.2-.3 6.4-.6 7-.7.6-.1 1.6.4 2.2 1.1z"/><path d="M25.6 15.7c-1.1 1.1-.6 2.3.9 2.3.8 0 1.5-.4 1.5-.9 0-1.3-1.6-2.2-2.4-1.4zm-6.2 5.8c-.4.9-.2 2.1.4 2.7 1.5 1.5 4.4.1 4-1.9-.4-2.3-3.6-2.9-4.4-.8z"/><path d="M15 24.5V28h13v-3.5c0-1.9-.4-3.5-1-3.5-.5 0-1 .8-1 1.8 0 2.4-1.9 4.2-4.5 4.2S17 25.2 17 22.8c0-1-.4-1.8-1-1.8-.5 0-1 1.6-1 3.5z"/></svg>